<svg height="487pt" viewBox="-1 0 487 487.184" width="487pt" xmlns="http://www.w3.org/2000/svg"><path d="m5.40625 318.109375 68.691406 160.832031 30.753906-13.027344-68.695312-160.851562c-3.53125-8.269531-13.121094-12.125-21.421875-8.609375l-.679687.289063c-8.3125 3.519531-12.179688 13.085937-8.648438 21.367187zm0 0" fill="#e0ebfc"/><path d="m74.101562 482.941406c-1.554687 0-3.035156-.914062-3.683593-2.429687l-68.6875-160.832031c-2.128907-4.984376-2.183594-10.496094-.160157-15.519532 2.035157-5.035156 5.910157-8.976562 10.921876-11.101562l.679687-.285156c10.308594-4.371094 22.273437.441406 26.660156 10.71875l68.699219 160.851562c.414062.976562.425781 2.082031.03125 3.066406-.398438.988282-1.171875 1.773438-2.152344 2.191406l-30.753906 13.023438c-.507812.214844-1.039062.316406-1.554688.316406zm-65.015624-166.40625 67.125 157.167969 23.386718-9.90625-67.121094-157.160156c-2.660156-6.234375-9.921874-9.152344-16.183593-6.5l-.675781.289062c-3.042969 1.289063-5.394532 3.675781-6.625 6.726563-1.222657 3.039062-1.191407 6.371094.09375 9.382812zm0 0" fill="#3762cc"/><path d="m87.3125 359.117188h-33.597656c-14.84375 0-26.878906 12.851562-26.878906 28.707031v27.597656c0 3.121094.382812 6.230469 1.132812 9.246094l13.214844 52.933593c.785156 3.140626 3.449218 5.328126 6.492187 5.328126h39.632813v-123.8125zm0 0" fill="#a4c9ff"/><path d="m211.625 359.117188h33.597656c14.84375 0 26.878906 12.851562 26.878906 28.707031v27.597656c0 3.121094-.382812 6.230469-1.136718 9.246094l-13.214844 52.933593c-.78125 3.140626-3.445312 5.328126-6.488281 5.328126h-39.636719zm0 0" fill="#a4c9ff"/><path d="m87.3125 486.929688h-39.632812c-4.882813 0-9.148438-3.441407-10.375-8.363282l-13.214844-52.929687c-.832032-3.332031-1.253906-6.765625-1.253906-10.214844v-27.597656c0-18.039063 13.851562-32.710938 30.878906-32.710938h33.597656c2.207031 0 4 1.792969 4 4v123.816407c0 2.207031-1.792969 4-4 4zm-33.597656-123.8125c-12.617188 0-22.878906 11.082031-22.878906 24.707031v27.597656c0 2.796875.34375 5.582031 1.015624 8.277344l13.214844 52.933593c.335938 1.351563 1.410156 2.296876 2.613282 2.296876h35.632812v-115.816407h-29.597656zm0 0" fill="#3762cc"/><path d="m251.257812 486.929688h-39.632812c-2.210938 0-4-1.792969-4-4v-123.816407c0-2.207031 1.789062-4 4-4h33.597656c17.023438 0 30.878906 14.675781 30.878906 32.710938v27.597656c0 3.445313-.421874 6.882813-1.253906 10.214844l-13.214844 52.929687c-1.230468 4.925782-5.496093 8.363282-10.375 8.363282zm-35.632812-8h35.632812c1.199219 0 2.273438-.945313 2.613282-2.296876l13.210937-52.933593c.671875-2.695313 1.015625-5.480469 1.015625-8.277344v-27.597656c0-13.625-10.261718-24.707031-22.878906-24.707031h-29.597656v115.8125zm0 0" fill="#3762cc"/><path d="m75.71875 243.667969h144.136719l17.25 113.585937c2.046875 13.492188 3.078125 27.109375 3.078125 40.738282v58.164062c0 14.785156-12.730469 26.773438-28.429688 26.773438h-127.933594c-15.699218 0-28.425781-11.988282-28.425781-26.773438v-58.164062c0-13.628907 1.027344-27.246094 3.078125-40.738282zm0 0" fill="#a4c9ff"/><path d="m211.75 486.929688h-127.929688c-17.878906 0-32.429687-13.804688-32.429687-30.773438v-58.164062c0-13.78125 1.050781-27.691407 3.125-41.339844l17.25-113.585938c.296875-1.957031 1.976563-3.402344 3.957031-3.402344h144.132813c1.976562 0 3.660156 1.445313 3.957031 3.402344l17.25 113.585938c2.070312 13.644531 3.121094 27.554687 3.121094 41.339844v58.164062c0 16.96875-14.550782 30.773438-32.433594 30.773438zm-132.59375-239.261719-16.730469 110.1875c-2.011719 13.253906-3.035156 26.757812-3.035156 40.136719v58.164062c0 12.558594 10.960937 22.773438 24.429687 22.773438h127.929688c13.472656 0 24.429688-10.214844 24.429688-22.773438v-58.164062c0-13.382813-1.019532-26.886719-3.03125-40.136719l-16.734376-110.1875zm0 0" fill="#3762cc"/><path d="m50.867188 214.1875-14.859376-8.542969c-9.308593-5.351562-12.496093-17.210937-7.121093-26.488281l27.050781-46.664062c7.519531-12.96875 24.164062-17.414063 37.183594-9.929688l31.710937 18.238281-36.78125 63.457031c-7.519531 12.972657-24.164062 17.417969-37.183593 9.929688zm0 0" fill="#4671c6"/><path d="m244.707031 214.1875 14.859375-8.542969c9.308594-5.351562 12.496094-17.210937 7.121094-26.488281l-27.050781-46.664062c-7.519531-12.96875-24.164063-17.414063-37.183594-9.929688l-31.714844 18.238281 36.785157 63.457031c7.523437 12.972657 24.164062 17.417969 37.183593 9.929688zm0 0" fill="#4671c6"/><path d="m64.417969 221.808594c-5.289063 0-10.644531-1.335938-15.542969-4.15625l-14.859375-8.542969c-5.4375-3.125-9.320313-8.175781-10.941406-14.222656-1.613281-6.03125-.777344-12.332031 2.355469-17.738281l27.046874-46.664063c8.609376-14.847656 27.738282-19.957031 42.640626-11.390625l31.710937 18.234375c.921875.53125 1.59375 1.40625 1.871094 2.433594.277343 1.027343.128906 2.121093-.402344 3.042969l-36.785156 63.460937c-5.78125 9.964844-16.296875 15.542969-27.09375 15.542969zm-11.558594-11.089844c11.09375 6.382812 25.324219 2.582031 31.726563-8.464844l34.773437-59.984375-28.234375-16.238281c-11.085938-6.375-25.324219-2.578125-31.726562 8.46875l-27.046876 46.664062c-2.0625 3.550782-2.613281 7.691407-1.550781 11.65625 1.066407 3.976563 3.621094 7.296876 7.203125 9.355469zm0 0" fill="#3762cc"/><path d="m231.15625 221.808594c-10.796875 0-21.3125-5.578125-27.089844-15.542969l-36.785156-63.457031c-.535156-.921875-.679688-2.015625-.402344-3.042969.273438-1.027344.945313-1.902344 1.867188-2.429687l31.714844-18.238282c14.90625-8.566406 34.027343-3.457031 42.636718 11.390625l27.046875 46.664063c3.136719 5.40625 3.972657 11.707031 2.355469 17.738281-1.621094 6.042969-5.503906 11.09375-10.941406 14.222656l-14.855469 8.542969c-4.898437 2.816406-10.257813 4.152344-15.546875 4.152344zm13.550781-7.621094h.019531zm-68.492187-71.917969 34.773437 59.984375c6.402344 11.042969 20.636719 14.84375 31.726563 8.464844l14.859375-8.542969c3.578125-2.058593 6.136719-5.378906 7.203125-9.359375 1.058594-3.960937.511718-8.101562-1.550782-11.652344l-27.046874-46.664062c-6.402344-11.046875-20.636719-14.847656-31.726563-8.46875zm0 0" fill="#3762cc"/><path d="m140.101562 316.449219h17.054688c35.183594 0 63.707031-28.519531 63.707031-63.707031v-70.03125c0-31.480469-25.519531-57-57-57h-30.46875c-31.484375 0-57.003906 25.519531-57.003906 57v70.03125c0 35.1875 28.523437 63.707031 63.710937 63.707031zm0 0" fill="#a4c9ff"/><path d="m157.152344 320.449219h-17.050782c-37.335937 0-67.710937-30.375-67.710937-67.707031v-70.027344c0-33.636719 27.367187-61.003906 61.003906-61.003906h30.464844c33.636719 0 61.003906 27.367187 61.003906 61.003906v70.027344c0 37.332031-30.375 67.707031-67.710937 67.707031zm-23.757813-190.738281c-29.226562 0-53.003906 23.777343-53.003906 53.003906v70.027344c0 32.921874 26.789063 59.710937 59.710937 59.710937h17.050782c32.921875 0 59.710937-26.789063 59.710937-59.710937v-70.027344c0-29.226563-23.777343-53.003906-53.003906-53.003906zm0 0" fill="#3762cc"/><path d="m238.5 273.792969v-16.75c0-23.09375-18.722656-41.820313-41.816406-41.820313h-97.789063c-23.097656 0-41.820312 18.726563-41.820312 41.820313v16.75c0 23.097656 18.722656 41.820312 41.820312 41.820312h97.789063c23.09375 0 41.816406-18.722656 41.816406-41.820312zm0 0" fill="#a4c9ff"/><path d="m196.683594 319.613281h-97.789063c-25.265625 0-45.820312-20.554687-45.820312-45.820312v-16.75c0-25.265625 20.554687-45.820313 45.820312-45.820313h97.789063c25.265625 0 45.820312 20.554688 45.820312 45.820313v16.75c-.003906 25.265625-20.558594 45.820312-45.820312 45.820312zm-97.789063-100.390625c-20.855469 0-37.820312 16.96875-37.820312 37.820313v16.75c0 20.855469 16.964843 37.820312 37.820312 37.820312h97.789063c20.855468 0 37.820312-16.964843 37.820312-37.820312v-16.75c0-20.851563-16.964844-37.820313-37.820312-37.820313zm0 0" fill="#3762cc"/><path d="m188.296875 214.164062h1.296875c5.164062 0 9.351562-4.183593 9.351562-9.351562v-9.296875c0-5.164063-4.183593-9.351563-9.351562-9.351563h-1.296875c-5.164063 0-9.351563 4.1875-9.351563 9.351563v9.296875c0 5.167969 4.1875 9.351562 9.351563 9.351562zm0 0" fill="#3762cc"/><path d="m104.300781 214.164062h1.300781c5.164063 0 9.351563-4.183593 9.351563-9.351562v-9.296875c0-5.164063-4.1875-9.351563-9.351563-9.351563h-1.300781c-5.164062 0-9.351562 4.1875-9.351562 9.351563v9.296875c0 5.167969 4.1875 9.351562 9.351562 9.351562zm0 0" fill="#3762cc"/><path d="m124.652344 320.320312h-21.296875c-9.789063 0-17.722657-7.9375-17.722657-17.722656v-41.121094c0-13.703124 11.109376-24.816406 24.8125-24.816406h39.023438v58.847656c0 13.703126-11.109375 24.8125-24.816406 24.8125zm0 0" fill="#e0ebfc"/><path d="m174.28125 320.320312h21.296875c9.789063 0 17.722656-7.9375 17.722656-17.722656v-41.121094c0-13.703124-11.109375-24.816406-24.8125-24.816406h-39.019531v58.847656c0 13.703126 11.105469 24.8125 24.8125 24.8125zm0 0" fill="#e0ebfc"/><path d="m195.578125 324.320312h-21.296875c-15.890625 0-28.816406-12.925781-28.816406-28.8125v-58.847656c0-2.207031 1.792968-4 4-4h39.023437c15.886719 0 28.8125 12.929688 28.8125 28.816406v41.121094c.003907 11.976563-9.742187 21.722656-21.722656 21.722656zm-42.109375-83.660156v54.847656c0 11.472657 9.335938 20.8125 20.8125 20.8125h21.296875c7.570313 0 13.726563-6.15625 13.726563-13.722656v-41.121094c0-11.480468-9.335938-20.816406-20.816407-20.816406zm0 0" fill="#3762cc"/><path d="m124.652344 324.320312h-21.296875c-11.976563 0-21.722657-9.746093-21.722657-21.722656v-41.121094c0-15.886718 12.925782-28.816406 28.8125-28.816406h39.023438c2.207031 0 4 1.792969 4 4v58.847656c0 15.886719-12.925781 28.8125-28.816406 28.8125zm-14.207032-83.660156c-11.476562 0-20.816406 9.335938-20.816406 20.816406v41.121094c0 7.566406 6.160156 13.722656 13.726563 13.722656h21.296875c11.476562 0 20.8125-9.335937 20.8125-20.8125v-54.847656zm0 0" fill="#3762cc"/><path d="m166.265625 236.660156h-33.597656c-1.855469 0-3.359375 1.5-3.359375 3.347656v6.691407c0 4.621093 3.761718 8.367187 8.402344 8.367187h23.519531c4.636719 0 8.398437-3.746094 8.398437-8.367187v-6.691407c-.003906-1.847656-1.507812-3.347656-3.363281-3.347656zm0 0" fill="#f9a7a7"/><path d="m161.226562 259.066406h-23.519531c-6.835937 0-12.398437-5.546875-12.398437-12.363281v-6.691406c0-4.050781 3.300781-7.347657 7.359375-7.347657h33.597656c4.058594 0 7.359375 3.296876 7.359375 7.347657v6.691406c0 6.816406-5.5625 12.363281-12.398438 12.363281zm-27.917968-18.40625v6.042969c0 2.40625 1.976562 4.363281 4.402344 4.363281h23.515624c2.425782 0 4.402344-1.957031 4.402344-4.363281v-6.042969zm32.957031 0h.019531zm0 0" fill="#3762cc"/><path d="m197.746094 486.929688-59.386719-.226563-40.507813.226563c-5.230468 0-9.667968-3.714844-10.574218-8.832032l-7.824219-44.144531c-.886719-5.015625-1.339844-10.144531-1.339844-15.238281v-62.9375c0-2.210938 1.792969-4 4-4s4 1.789062 4 4v62.9375c0 4.628906.410157 9.285156 1.214844 13.839844l7.824219 44.144531c.226562 1.292969 1.351562 2.230469 2.671875 2.230469l40.523437-.226563 59.417969.226563c1.304687 0 2.429687-.9375 2.65625-2.226563l7.824219-44.144531c.808594-4.558594 1.214844-9.214844 1.214844-13.84375v-62.9375c0-2.210938 1.792968-4 4-4 2.207031 0 4 1.789062 4 4v62.9375c0 5.09375-.449219 10.222656-1.339844 15.238281l-7.820313 44.144531c-.90625 5.117188-5.34375 8.832032-10.554687 8.832032zm0 0" fill="#3762cc"/><path d="m147.082031 487.183594c-2.207031 0-4-1.792969-4-4v-92c0-2.207032 1.792969-4 4-4s4 1.792968 4 4v92c0 2.210937-1.789062 4-4 4zm0 0" fill="#3762cc"/><path d="m407.804688 371.148438-51.101563 111.367187-20.742187-9.121094 51.097656-111.363281c2.589844-5.640625 9.332031-8.175781 15.0625-5.65625 5.726562 2.519531 8.273437 9.132812 5.683594 14.773438zm0 0" fill="#f9cfcf"/><path d="m356.703125 486.515625c-.539063 0-1.085937-.113281-1.609375-.339844l-20.742188-9.117187c-.984374-.433594-1.75-1.242188-2.132812-2.242188-.378906-1.003906-.34375-2.117187.105469-3.089844l51.097656-111.363281c3.492187-7.601562 12.597656-11.039062 20.304687-7.652343 3.777344 1.660156 6.65625 4.679687 8.105469 8.5 1.441407 3.792968 1.300781 7.914062-.394531 11.605468l-51.101562 111.367188c-.667969 1.464844-2.117188 2.332031-3.632813 2.332031zm-15.410156-15.144531 13.417969 5.898437 49.457031-107.789062c.792969-1.726563.863281-3.65625.191406-5.425781-.6875-1.800782-2.050781-3.230469-3.847656-4.015626-3.734375-1.644531-8.136719 0-9.816407 3.664063zm0 0" fill="#3762cc"/><path d="m396.027344 422.390625c-.636719-3.96875-1.738282-7.789063-3.230469-11.414063l-21.355469-75.433593h-83.171875l-21.359375 75.433593c-1.492187 3.625-2.589844 7.445313-3.230468 11.414063l-.316407 2.335937c-.222656 1.9375-.34375 3.90625-.34375 5.902344 0 28.972656 23.9375 52.460938 53.464844 52.460938h26.734375c29.53125 0 53.46875-23.488282 53.46875-52.460938 0-1.996094-.125-3.964844-.347656-5.902344zm0 0" fill="#e0ebfc"/><path d="m343.21875 487.085938h-26.734375c-31.6875 0-57.464844-25.328126-57.464844-56.457032 0-2.054687.125-4.191406.371094-6.355468l.324219-2.417969c.675781-4.214844 1.820312-8.28125 3.410156-12.183594l21.292969-75.214844c.488281-1.722656 2.058593-2.910156 3.847656-2.910156h83.171875c1.789062 0 3.363281 1.1875 3.847656 2.910156l21.296875 75.214844c1.589844 3.902344 2.730469 7.96875 3.390625 12.085937.003906.03125.011719.0625.015625.097657l.316407 2.335937c.253906 2.238282.382812 4.375.382812 6.4375 0 31.128906-25.78125 56.457032-57.46875 56.457032zm-51.929688-147.542969-20.53125 72.523437c-.042968.148438-.09375.292969-.148437.4375-1.402344 3.398438-2.40625 6.9375-2.980469 10.519532l-.300781 2.238281c-.203125 1.78125-.308594 3.613281-.308594 5.367187 0 26.71875 22.191407 48.457032 49.464844 48.457032h26.734375c27.277344 0 49.46875-21.738282 49.46875-48.457032 0-1.761718-.109375-3.59375-.320312-5.449218l-.296876-2.203126c-.578124-3.566406-1.578124-7.089843-2.972656-10.472656-.058594-.144531-.109375-.289062-.148437-.4375l-20.535157-72.523437zm0 0" fill="#3762cc"/><path d="m401.335938 288.292969-55.25-31.296875 47.261718-25.355469c2.996094-1.609375 6.664063.46875 6.742188 3.820313zm0 0" fill="#e0ebfc"/><path d="m368.300781 257.246094 21.171875-11.355469.558594 23.664063zm0 0" fill="#f9cfcf"/><path d="m401.335938 292.292969c-.679688 0-1.359376-.171875-1.96875-.519531l-55.25-31.296876c-1.269532-.71875-2.046876-2.070312-2.03125-3.527343.019531-1.457031.828124-2.789063 2.113281-3.476563l47.257812-25.355468c2.660157-1.425782 5.808594-1.375 8.417969.148437 2.570312 1.496094 4.144531 4.148437 4.210938 7.101563l1.25 52.832031c.035156 1.441406-.707032 2.789062-1.941407 3.527343-.632812.375-1.34375.566407-2.058593.566407zm-46.964844-35.203125 42.800781 24.246094-1.082031-45.78125c0-.066407-.007813-.242188-.242188-.378907-.136718-.078125-.355468-.144531-.609375-.011719zm0 0" fill="#3762cc"/><path d="m258.367188 288.292969 55.25-31.296875-47.261719-25.355469c-2.996094-1.609375-6.660157.46875-6.742188 3.820313zm0 0" fill="#e0ebfc"/><path d="m270.234375 245.890625 21.167969 11.355469-21.730469 12.308594zm0 0" fill="#f9cfcf"/><path d="m258.367188 292.292969c-.714844 0-1.421876-.191407-2.054688-.570313-1.238281-.738281-1.980469-2.085937-1.945312-3.523437l1.25-52.835938c.070312-2.949219 1.648437-5.605469 4.214843-7.101562 2.605469-1.519531 5.753907-1.574219 8.414063-.144531l47.261718 25.351562c1.285157.6875 2.09375 2.023438 2.109376 3.480469.019531 1.453125-.757813 2.808593-2.027344 3.523437l-55.25 31.296875c-.613282.351563-1.292969.523438-1.972656.523438zm5.804687-57.203125c-.125 0-.234375.039062-.3125.085937-.238281.136719-.242187.3125-.242187.378907l-1.082032 45.78125 42.796875-24.246094-40.863281-21.925782c-.109375-.054687-.207031-.074218-.296875-.074218zm0 0" fill="#3762cc"/><path d="m345.78125 362.4375h-31.859375c-32.097656 0-58.121094-26.023438-58.121094-58.121094 0-32.101562 26.023438-58.121094 58.121094-58.121094h31.859375c32.097656 0 58.121094 26.019532 58.121094 58.121094 0 32.097656-26.019532 58.121094-58.121094 58.121094zm0 0" fill="#e0ebfc"/><path d="m370.773438 331.789062c-5.257813-18.960937-21.945313-32.011718-40.921876-32.011718-18.976562 0-35.660156 13.050781-40.921874 32.011718l-5.027344 18.117188c8.941406 5.417969 19.457031 8.550781 30.714844 8.550781h30.464843c11.257813 0 21.777344-3.128906 30.714844-8.550781zm0 0" fill="#f9cfcf"/><g fill="#3762cc"><path d="m302.089844 310.402344c-3.128906 0-5.667969-2.539063-5.667969-5.667969v-8.664063c0-3.128906 2.539063-5.667968 5.667969-5.667968s5.664062 2.539062 5.664062 5.667968v8.664063c0 3.132813-2.535156 5.667969-5.664062 5.667969zm0 0"/><path d="m358.753906 310.402344c-3.128906 0-5.664062-2.539063-5.664062-5.667969v-8.664063c0-3.128906 2.539062-5.667968 5.664062-5.667968 3.132813 0 5.667969 2.539062 5.667969 5.667968v8.664063c0 3.132813-2.535156 5.667969-5.667969 5.667969zm0 0"/><path d="m337.828125 331.789062c-3.21875 0-6.261719-1.046874-8.542969-2.847656-2.285156 1.800782-5.328125 2.847656-8.546875 2.847656-6.914062 0-12.542969-4.804687-12.542969-10.710937 0-2.207031 1.792969-4 4-4 2.207032 0 4 1.792969 4 4 0 1.28125 1.945313 2.710937 4.542969 2.710937 2.113281 0 3.660157-.921874 4.257813-1.835937.949218-1.445313 2.554687-2.308594 4.289062-2.308594s3.339844.863281 4.289063 2.308594c.597656.914063 2.148437 1.835937 4.253906 1.835937 2.601563 0 4.546875-1.429687 4.546875-2.710937 0-2.207031 1.789062-4 4-4 2.207031 0 4 1.792969 4 4-.003906 5.90625-5.632812 10.710937-12.546875 10.710937zm0 0"/><path d="m345.78125 366.4375h-31.859375c-34.253906 0-62.121094-27.871094-62.121094-62.125s27.867188-62.121094 62.121094-62.121094h31.859375c34.253906 0 62.121094 27.867188 62.121094 62.121094s-27.867188 62.125-62.121094 62.125zm-31.855469-116.246094c-29.84375 0-54.125 24.28125-54.125 54.125 0 29.839844 24.28125 54.121094 54.125 54.121094h31.855469c29.84375 0 54.125-24.28125 54.125-54.121094 0-29.84375-24.28125-54.125-54.125-54.125zm0 0"/><path d="m419.855469 322.285156h-34.179688c-2.207031 0-4-1.792968-4-4 0-2.207031 1.792969-4 4-4h34.179688c2.207031 0 4 1.792969 4 4 0 2.207032-1.792969 4-4 4zm0 0"/><path d="m385.691406 312.785156c-1.394531 0-2.75-.730468-3.484375-2.027344-1.089843-1.921874-.414062-4.367187 1.507813-5.453124l29.597656-16.765626c1.921875-1.089843 4.363281-.414062 5.453125 1.507813 1.085937 1.921875.414063 4.363281-1.511719 5.449219l-29.597656 16.769531c-.621094.351563-1.296875.519531-1.964844.519531zm0 0"/><path d="m415.28125 348.554688c-.667969 0-1.34375-.167969-1.96875-.519532l-29.597656-16.765625c-1.921875-1.089843-2.597656-3.53125-1.507813-5.453125 1.085938-1.921875 3.527344-2.597656 5.449219-1.507812l29.597656 16.765625c1.925782 1.085937 2.601563 3.53125 1.511719 5.453125-.738281 1.296875-2.089844 2.027344-3.484375 2.027344zm0 0"/><path d="m274.03125 322.285156h-34.175781c-2.210938 0-4-1.792968-4-4 0-2.207031 1.789062-4 4-4h34.175781c2.207031 0 4 1.792969 4 4 0 2.207032-1.792969 4-4 4zm0 0"/><path d="m244.421875 348.554688c-1.390625 0-2.746094-.730469-3.480469-2.03125-1.089844-1.921876-.414062-4.363282 1.507813-5.453126l29.597656-16.765624c1.921875-1.085938 4.363281-.414063 5.449219 1.507812 1.089844 1.921875.414062 4.367188-1.507813 5.453125l-29.597656 16.765625c-.621094.355469-1.300781.523438-1.96875.523438zm0 0"/><path d="m274.015625 312.785156c-.667969 0-1.34375-.167968-1.96875-.519531l-29.597656-16.765625c-1.921875-1.089844-2.597657-3.53125-1.507813-5.453125 1.089844-1.917969 3.527344-2.597656 5.453125-1.507813l29.597657 16.765626c1.921874 1.089843 2.597656 3.53125 1.507812 5.453124-.734375 1.296876-2.089844 2.027344-3.484375 2.027344zm0 0"/></g><path d="m334.5625 309.386719 4.714844-4.621094c1.019531-1.003906 1.625-2.25 1.84375-3.546875-3.667969-.699219-7.433594-1.078125-11.269532-1.078125-3.832031 0-7.601562.378906-11.269531 1.078125.21875 1.300781.824219 2.546875 1.847657 3.546875l4.710937 4.621094c2.601563 2.554687 6.820313 2.554687 9.421875 0zm0 0" fill="#f9a7a7"/><path d="m352.515625 487.085938h-13.550781c-.804688 0-1.617188-.074219-2.40625-.21875-3.941406-.726563-6.804688-4.214844-6.804688-8.300782v-53.074218c0-.027344 0-.105469-.085937-.183594-.109375-.097656-.238281-.085938-.28125-.082032-.105469.007813-.265625.214844-.265625.449219v52.941407c0 4.648437-3.730469 8.445312-8.316406 8.46875h-13.613282c-6.300781 0-11.71875-4.433594-12.886718-10.542969l-1.765626-9.253907c-14.101562-54.863281-10.808593-71.542968-10.664062-72.230468.464844-2.160156 2.589844-3.535156 4.753906-3.066406 2.144532.460937 3.515625 2.5625 3.078125 4.710937-.066406.363281-2.765625 16.707031 10.609375 68.714844.019532.082031.042969.164062.054688.246093l1.792968 9.378907c.449219 2.34375 2.5625 4.042969 5.03125 4.042969h13.542969c.207031 0 .382813-.238282.382813-.46875v-52.941407c0-4.320312 3.300781-8.015625 7.515625-8.414062 2.351562-.214844 4.6875.554687 6.417969 2.132812 1.714843 1.5625 2.699218 3.785157 2.699218 6.09375v53.078125c0 .21875.136719.410156.25.429688.316406.058594.636719.089844.960938.089844h13.546875c2.464843 0 4.582031-1.703126 5.03125-4.046876l1.789062-9.375c.019531-.085937.035157-.167968.054688-.246093 13.464843-52.34375 10.644531-68.5625 10.613281-68.71875-.414062-2.152344.980469-4.257813 3.128906-4.691407 2.148438-.441406 4.242188.914063 4.699219 3.054688.148437.683594 3.441406 17.367188-10.660156 72.226562l-1.769531 9.253907c-1.167969 6.109375-6.585938 10.542969-12.882813 10.542969zm0 0" fill="#3762cc"/><path d="m275.25 117.859375 51.691406 57.773437c11.792969 13.179688 27.269532 19.726563 42.722656 19.652344 15.453126.074219 30.929688-6.472656 42.722657-19.652344l51.6875-57.773437c23.453125-26.210937 23.453125-68.707031 0-94.917969-23.449219-26.210937-61.46875-26.210937-84.917969 0l-4.191406 4.683594c-2.929688 3.273438-7.675782 3.273438-10.605469 0l-4.191406-4.683594c-23.449219-26.210937-61.46875-26.210937-84.921875 0-23.445313 26.210938-23.445313 68.707032.003906 94.917969zm0 0" fill="#f9cfcf"/><path d="m275.25 117.859375 51.691406 57.773437c11.792969 13.179688 27.269532 19.726563 42.722656 19.652344 15.453126.074219 30.929688-6.472656 42.722657-19.652344l51.6875-57.773437c23.453125-26.210937 23.453125-68.707031 0-94.917969-23.449219-26.210937-61.46875-26.210937-84.917969 0l-4.191406 4.683594c-2.929688 3.273438-7.675782 3.273438-10.605469 0l-4.191406-4.683594c-23.449219-26.210937-61.46875-26.210937-84.921875 0-23.445313 26.210938-23.445313 68.707032.003906 94.917969zm0 0" fill="#f9cfcf"/><path d="m419.902344 82.066406h-22.242188c-3.785156 0-6.851562-3.066406-6.851562-6.847656v-22.246094c0-3.785156-3.066406-6.851562-6.847656-6.851562h-28.589844c-3.785156 0-6.851563 3.070312-6.851563 6.851562v22.242188c0 3.785156-3.066406 6.851562-6.851562 6.851562h-22.242188c-3.785156 0-6.851562 3.066406-6.851562 6.847656v28.589844c0 3.785156 3.070312 6.851563 6.851562 6.851563h22.242188c3.785156 0 6.851562 3.066406 6.851562 6.847656v22.25c0 3.78125 3.066407 6.847656 6.851563 6.847656h28.585937c3.785157 0 6.851563-3.066406 6.851563-6.847656v-22.246094c0-3.78125 3.066406-6.847656 6.847656-6.847656h22.246094c3.785156 0 6.847656-3.070313 6.847656-6.851563v-28.589843c.003906-3.785157-3.0625-6.851563-6.847656-6.851563zm0 0" fill="#f9a7a7"/><path d="m419.902344 82.066406h-22.242188c-3.785156 0-6.851562-3.066406-6.851562-6.847656v-22.246094c0-3.785156-3.066406-6.851562-6.847656-6.851562h-28.589844c-3.785156 0-6.851563 3.070312-6.851563 6.851562v22.242188c0 3.785156-3.066406 6.851562-6.851562 6.851562h-22.242188c-3.785156 0-6.851562 3.066406-6.851562 6.847656v28.589844c0 3.785156 3.070312 6.851563 6.851562 6.851563h22.242188c3.785156 0 6.851562 3.066406 6.851562 6.847656v22.25c0 3.78125 3.066407 6.847656 6.851563 6.847656h28.585937c3.785157 0 6.851563-3.066406 6.851563-6.847656v-22.246094c0-3.78125 3.066406-6.847656 6.847656-6.847656h22.246094c3.785156 0 6.847656-3.070313 6.847656-6.851563v-28.589843c.003906-3.785157-3.0625-6.851563-6.847656-6.851563zm0 0" fill="#f9a7a7"/><path d="m369.933594 198.570312c-.191406 0-.382813 0-.578125 0-17.207031 0-33.382813-7.386718-45.535157-20.824218l-51.875-57.34375c-24.835937-27.453125-24.835937-72.121094 0-99.574219 12.148438-13.429687 28.335938-20.828125 45.578126-20.828125 17.242187 0 33.425781 7.394531 45.578124 20.828125l4.207032 4.648437c1.304687 1.445313 3.402344 1.445313 4.707031 0l4.207031-4.648437c12.148438-13.429687 28.335938-20.828125 45.578125-20.828125 17.242188 0 33.429688 7.394531 45.578125 20.828125 24.835938 27.453125 24.835938 72.125 0 99.574219l-51.875 57.34375c-12.148437 13.433594-28.324218 20.820312-45.570312 20.824218zm-.289063-8.003906h.25c14.996094 0 29.0625-6.453125 39.679688-18.1875l51.875-57.34375c22.160156-24.496094 22.160156-64.347656 0-88.839844-10.613281-11.734374-24.691407-18.199218-39.644531-18.199218-14.949219 0-29.03125 6.460937-39.644532 18.195312l-4.207031 4.652344c-2.1875 2.417969-5.132813 3.75-8.285156 3.75-3.15625 0-6.097657-1.332031-8.289063-3.75l-4.207031-4.652344c-10.613281-11.734375-24.695313-18.195312-39.644531-18.195312-14.953125 0-29.03125 6.460937-39.644532 18.195312-22.160156 24.496094-22.160156 64.347656 0 88.84375l51.875 57.34375c10.617188 11.734375 24.6875 18.1875 39.640626 18.1875.082031.003906.164062 0 .246093 0zm0 0" fill="#3762cc"/><path d="m369.933594 198.570312c-.191406 0-.382813 0-.578125 0-17.207031 0-33.382813-7.386718-45.535157-20.824218l-51.875-57.34375c-24.835937-27.453125-24.835937-72.121094 0-99.574219 12.148438-13.429687 28.335938-20.828125 45.578126-20.828125 17.242187 0 33.425781 7.394531 45.578124 20.828125l4.207032 4.648437c1.304687 1.445313 3.402344 1.445313 4.707031 0l4.207031-4.648437c12.148438-13.429687 28.335938-20.828125 45.578125-20.828125 17.242188 0 33.429688 7.394531 45.578125 20.828125 24.835938 27.453125 24.835938 72.125 0 99.574219l-51.875 57.34375c-12.148437 13.433594-28.324218 20.820312-45.570312 20.824218zm-.289063-8.003906h.25c14.996094 0 29.0625-6.453125 39.679688-18.1875l51.875-57.34375c22.160156-24.496094 22.160156-64.347656 0-88.839844-10.613281-11.734374-24.691407-18.199218-39.644531-18.199218-14.949219 0-29.03125 6.460937-39.644532 18.195312l-4.207031 4.652344c-2.1875 2.417969-5.132813 3.75-8.285156 3.75-3.15625 0-6.097657-1.332031-8.289063-3.75l-4.207031-4.652344c-10.613281-11.734375-24.695313-18.195312-39.644531-18.195312-14.953125 0-29.03125 6.460937-39.644532 18.195312-22.160156 24.496094-22.160156 64.347656 0 88.84375l51.875 57.34375c10.617188 11.734375 24.6875 18.1875 39.640626 18.1875.082031.003906.164062 0 .246093 0zm0 0" fill="#3762cc"/><path d="m383.957031 164.300781h-28.585937c-5.984375 0-10.851563-4.867187-10.851563-10.847656v-22.246094c0-1.570312-1.28125-2.847656-2.851562-2.847656h-22.246094c-5.980469 0-10.847656-4.871094-10.847656-10.851563v-28.589843c0-5.984375 4.867187-10.851563 10.847656-10.851563h22.246094c1.570312 0 2.851562-1.277344 2.851562-2.851562v-22.242188c0-5.984375 4.867188-10.851562 10.851563-10.851562h28.585937c5.984375 0 10.851563 4.867187 10.851563 10.851562v22.242188c0 1.574218 1.277344 2.851562 2.847656 2.851562h22.246094c5.984375 0 10.847656 4.871094 10.847656 10.851563v28.585937c0 5.984375-4.867188 10.851563-10.847656 10.851563h-22.246094c-1.570312 0-2.847656 1.277343-2.847656 2.851562v22.246094c0 5.980469-4.867188 10.847656-10.851563 10.847656zm-64.535156-78.234375c-1.570313 0-2.847656 1.28125-2.847656 2.851563v28.585937c0 1.570313 1.277343 2.851563 2.847656 2.851563h22.246094c5.984375 0 10.851562 4.867187 10.851562 10.851562v22.246094c0 1.570313 1.277344 2.847656 2.851563 2.847656h28.585937c1.570313 0 2.851563-1.277343 2.851563-2.847656v-22.246094c0-5.984375 4.867187-10.847656 10.847656-10.847656h22.246094c1.570312 0 2.847656-1.28125 2.847656-2.851563v-28.589843c0-1.570313-1.277344-2.851563-2.847656-2.851563h-22.246094c-5.984375 0-10.847656-4.867187-10.847656-10.851562v-22.242188c0-1.574218-1.28125-2.851562-2.851563-2.851562h-28.585937c-1.574219 0-2.851563 1.277344-2.851563 2.851562v22.242188c0 5.984375-4.867187 10.851562-10.851562 10.851562zm0 0" fill="#3762cc"/><path d="m383.957031 164.300781h-28.585937c-5.984375 0-10.851563-4.867187-10.851563-10.847656v-22.246094c0-1.570312-1.28125-2.847656-2.851562-2.847656h-22.246094c-5.980469 0-10.847656-4.871094-10.847656-10.851563v-28.589843c0-5.984375 4.867187-10.851563 10.847656-10.851563h22.246094c1.570312 0 2.851562-1.277344 2.851562-2.851562v-22.242188c0-5.984375 4.867188-10.851562 10.851563-10.851562h28.585937c5.984375 0 10.851563 4.867187 10.851563 10.851562v22.242188c0 1.574218 1.277344 2.851562 2.847656 2.851562h22.246094c5.984375 0 10.847656 4.871094 10.847656 10.851563v28.585937c0 5.984375-4.867188 10.851563-10.847656 10.851563h-22.246094c-1.570312 0-2.847656 1.277343-2.847656 2.851562v22.246094c0 5.980469-4.867188 10.847656-10.851563 10.847656zm-64.535156-78.234375c-1.570313 0-2.847656 1.28125-2.847656 2.851563v28.585937c0 1.570313 1.277343 2.851563 2.847656 2.851563h22.246094c5.984375 0 10.851562 4.867187 10.851562 10.851562v22.246094c0 1.570313 1.277344 2.847656 2.851563 2.847656h28.585937c1.570313 0 2.851563-1.277343 2.851563-2.847656v-22.246094c0-5.984375 4.867187-10.847656 10.847656-10.847656h22.246094c1.570312 0 2.847656-1.28125 2.847656-2.851563v-28.589843c0-1.570313-1.277344-2.851563-2.847656-2.851563h-22.246094c-5.984375 0-10.847656-4.867187-10.847656-10.851562v-22.242188c0-1.574218-1.28125-2.851562-2.851563-2.851562h-28.585937c-1.574219 0-2.851563 1.277344-2.851563 2.851562v22.242188c0 5.984375-4.867187 10.851562-10.851562 10.851562zm0 0" fill="#3762cc"/></svg>