<svg id="Capa_1" enable-background="new 0 0 512 512" height="512" viewBox="0 0 512 512" width="512" xmlns="http://www.w3.org/2000/svg"><path d="m175 512h-100c-8.284 0-15-6.716-15-15v-60c0-2.761 2.239-5 5-5h120c2.761 0 5 2.239 5 5v60c0 8.285-6.715 15-15 15z" fill="#e8f2f8"/><path d="m1.212 300.815 58.788 137.212h130v-55.59c0-13.408-4.064-26.3-11.755-37.282l-40.374-57.66c-10.511-15.013-30.933-19.776-46.494-10.844-4.68 2.687-8.631 6.426-11.592 10.896-6.35-10.961-9.785-23.566-9.785-36.26v-93.629c0-19.112-15.049-35.195-34.156-35.647-19.683-.466-35.844 15.41-35.844 34.989v137.907c0 2.031.413 4.041 1.212 5.908z" fill="#ffc8aa"/><path d="m105.961 363.964-25.828-36.886c-11.069-15.809-7.213-37.676 8.596-48.745l.187-.125 2.462-1.558c15.562-8.932 35.983-4.168 46.494 10.844l43.242 61.756z" fill="#ffc8aa"/><path d="m93.674 372.568c6.786-4.752 8.435-14.105 3.683-20.891l-17.225-24.599c-8.521-12.17-8.189-27.924-.377-39.584-5.744-9.933-9.086-21.214-9.658-32.686-13.412 9.933-22.376 24.385-25.29 40.911-3.018 17.108.801 34.356 10.751 48.567l17.224 24.599c4.753 6.786 14.106 8.435 20.892 3.683z" fill="#fab48f"/><path d="m322 497v-60c0-2.761 2.239-5 5-5h120c2.761 0 5 2.239 5 5v60c0 8.284-6.716 15-15 15h-100c-8.284 0-15-6.715-15-15z" fill="#d2e1e6"/><path d="m510.788 300.815-58.788 137.212h-130v-55.59c0-13.408 4.064-26.3 11.755-37.282l40.374-57.66c10.511-15.013 30.933-19.776 46.494-10.844 4.68 2.687 8.631 6.426 11.592 10.896 6.351-10.961 9.785-23.565 9.785-36.26v-93.629c0-19.112 15.049-35.195 34.156-35.647 19.683-.466 35.844 15.41 35.844 34.989v137.907c0 2.031-.412 4.041-1.212 5.908z" fill="#fab48f"/><path d="m406.039 363.964 25.828-36.886c11.069-15.809 7.213-37.676-8.596-48.745l-.187-.125-2.462-1.558c-15.562-8.932-35.983-4.168-46.494 10.844l-43.242 61.756z" fill="#fab48f"/><path d="m418.326 372.568c-6.786-4.752-8.435-14.105-3.683-20.891l17.225-24.599c8.521-12.17 8.189-27.924.377-39.584 5.744-9.933 9.086-21.214 9.658-32.686 13.412 9.933 22.376 24.385 25.29 40.911 3.018 17.108-.801 34.356-10.751 48.567l-17.224 24.599c-4.752 6.786-14.106 8.435-20.892 3.683z" fill="#e69678"/><path d="m256 15-105 93.333v126.667c0 8.284 6.716 15 15 15h180c8.284 0 15-6.716 15-15v-126.666z" fill="#ffe646"/><path d="m346 250c8.284 0 15-6.716 15-15v-126.666l-105-93.334v235z" fill="#fad21e"/><path d="m301 250h-90v-95c0-8.284 6.716-15 15-15h60c8.284 0 15 6.716 15 15z" fill="#b47840"/><path d="m286 140h-30v110h45v-95c0-8.284-6.715-15-15-15z" fill="#915d26"/><path d="m385.994 145.556c-3.544 0-7.102-1.249-9.96-3.789l-120.034-106.697-120.034 106.697c-6.192 5.505-15.674 4.945-21.177-1.246-5.504-6.191-4.946-15.673 1.245-21.176l130-115.556c5.684-5.053 14.248-5.053 19.932 0l130 115.556c6.191 5.503 6.749 14.985 1.245 21.176-2.963 3.334-7.081 5.035-11.217 5.035z" fill="#fa7878"/><path d="m376.034 141.767c2.858 2.541 6.416 3.789 9.96 3.789 4.136 0 8.254-1.701 11.217-5.035 5.504-6.191 4.946-15.673-1.245-21.176l-130-115.556c-2.842-2.526-6.404-3.789-9.966-3.789v35.07z" fill="#f44650"/></svg>