<svg height="512" viewBox="0 0 512 512" width="512" xmlns="http://www.w3.org/2000/svg"><path d="m488 194.71v10.3a196.109 196.109 0 0 1 -87.82 163.5l-88.18 58.4-32 21.19-24 15.9-8-5.24-24-15.73-11.5-7.53-86.23-56.49-11.33-7.42-2.31-1.52a196.1 196.1 0 0 1 -88.63-164.03v-23.13a133.606 133.606 0 0 1 20.89-71.73 119.117 119.117 0 0 1 100.51-55.18h3.03a119.141 119.141 0 0 1 95.31 47.66l12.26 16.34 12.26-16.34a119.136 119.136 0 0 1 198.22 11.45 158.105 158.105 0 0 1 21.52 79.6z" fill="#dc4d41"/><path d="m280 380v68 .1l32-21.19v-71.91z" fill="#ea9d2d"/><path d="m360 168v20a19.994 19.994 0 0 1 -20 20h-20v48l-2.928 8.012 5.068 7.988 3.9 29.24a118.187 118.187 0 0 1 .9 21.6 61.336 61.336 0 0 1 -14.94 37.16l-32 24v64.1l-24 15.9-8-5.24v-58.76l-35.5 35.5-86.23-56.49 65.73-91.01 16-24 20.95-20.95 10.593-2.593.457-8.457v-22.28a81.421 81.421 0 0 1 23.85-57.57 27.859 27.859 0 0 1 19.68-8.15h17.32a26.932 26.932 0 0 1 19.04 7.89l16.11 16.11z" fill="#fbb540"/><path d="m288 168h16v16h-16z" fill="#985713"/><path d="m322.14 272h-11.54a104.321 104.321 0 0 1 -46.39-10.95l-35.26-18 11.05-11.05v-1.27l31.43 16.04a88.047 88.047 0 0 0 39.17 9.23h9.4z" fill="#428dc5"/><path d="m257.991 240h-17.991v-16h17.991a6.016 6.016 0 0 0 6.009-6.01v-25.99h16v25.99a22.035 22.035 0 0 1 -22.009 22.01z" fill="#985713"/><g fill="#b94137"><path d="m344.007 376a8 8 0 0 1 -3.976-14.947l21.537-12.307a199.282 199.282 0 0 0 56.981-48.738l7.2-9.006a8 8 0 1 1 12.498 9.998l-7.2 9.006a215.249 215.249 0 0 1 -61.537 52.637l-21.537 12.306a7.968 7.968 0 0 1 -3.966 1.051z"/><path d="m448 272a8 8 0 0 1 -7.59-10.532l1.243-3.73a123.445 123.445 0 0 0 6.347-39.105v-2.633a8 8 0 0 1 16 0v2.633a139.444 139.444 0 0 1 -7.167 44.167l-1.244 3.73a8 8 0 0 1 -7.589 5.47z"/><path d="m456 192a8 8 0 0 1 -8-8v-8a8 8 0 0 1 16 0v8a8 8 0 0 1 -8 8z"/><path d="m128.259 352a7.961 7.961 0 0 1 -4.662-1.5 216.113 216.113 0 0 1 -42.64-40.5l-7.204-9a8 8 0 1 1 12.494-10l7.2 9.006a200.151 200.151 0 0 0 39.483 37.5 8 8 0 0 1 -4.675 14.5z"/><path d="m64 272a8 8 0 0 1 -7.588-5.472l-1.245-3.728a139.454 139.454 0 0 1 -7.167-44.167v-2.633a8 8 0 0 1 16 0v2.633a123.456 123.456 0 0 0 6.346 39.108l1.243 3.729a8 8 0 0 1 -7.589 10.53z"/></g><path d="m256 288v16a24.006 24.006 0 0 1 -24 24v29.1a35.93 35.93 0 0 1 -6.05 19.97l-9.95 14.93v24l2.91 5.82 2.42 4.85 2.67 5.33v11.03l-11.5-7.53-86.23-56.49-11.33-7.42 45.06-67.59v-25.04c0-.61.01-1.23.03-1.84a52.02 52.02 0 0 1 12.6-31.75l11.37-13.37 8 32h19.156a23.987 23.987 0 0 1 19.964 10.69 29.921 29.921 0 0 0 24.88 13.31z" fill="#e4e4e2"/><path d="m200 288h16v16h-16z" fill="#4799cf"/></svg>